<?xml version="1.0" encoding="UTF-8" standalone="no"?><!DOCTYPE svg PUBLIC "-//W3C//DTD SVG 1.1//EN" "http://www.w3.org/Graphics/SVG/1.1/DTD/svg11.dtd"><svg width="100%" height="100%" viewBox="0 0 24 24" version="1.1" xmlns="http://www.w3.org/2000/svg" xmlns:xlink="http://www.w3.org/1999/xlink" xml:space="preserve" xmlns:serif="http://www.serif.com/" style="fill-rule:evenodd;clip-rule:evenodd;stroke-linejoin:round;stroke-miterlimit:2;"><path d="M24,6c0,-3.311 -2.689,-6 -6,-6l-12,0c-3.311,0 -6,2.689 -6,6l0,12c0,3.311 2.689,6 6,6l12,0c3.311,0 6,-2.689 6,-6l0,-12Zm-8.16,10.8c0.064,0.256 0.096,0.576 0.096,0.96c0,0.368 -0.032,0.688 -0.096,0.96l-1.92,-0c-0.064,-0.272 -0.096,-0.592 -0.096,-0.96c0,-0.384 0.032,-0.704 0.096,-0.96l-0.72,-0c-0.064,-0.272 -0.096,-0.592 -0.096,-0.96c0,-0.384 0.032,-0.704 0.096,-0.96l-0.72,0c-0.064,-0.272 -0.096,-0.592 -0.096,-0.96c0,-0.384 0.032,-0.704 0.096,-0.96l-2.4,0c0.064,0.256 0.096,0.576 0.096,0.96c0,0.368 -0.032,0.688 -0.096,0.96c0.064,0.256 0.096,0.576 0.096,0.96c0,0.368 -0.032,0.688 -0.096,0.96c0.064,0.256 0.096,0.576 0.096,0.96c0,0.368 -0.032,0.688 -0.096,0.96l-1.92,-0c-0.064,-0.272 -0.096,-0.592 -0.096,-0.96c0,-0.384 0.032,-0.704 0.096,-0.96c-0.064,-0.272 -0.096,-0.592 -0.096,-0.96c0,-0.384 0.032,-0.704 0.096,-0.96c-0.064,-0.272 -0.096,-0.592 -0.096,-0.96c0,-0.384 0.032,-0.704 0.096,-0.96c-0.064,-0.272 -0.096,-0.592 -0.096,-0.96c0,-0.384 0.032,-0.704 0.096,-0.96c-0.064,-0.272 -0.096,-0.592 -0.096,-0.96c0,-0.384 0.032,-0.704 0.096,-0.96c-0.064,-0.272 -0.096,-0.592 -0.096,-0.96c0,-0.384 0.032,-0.704 0.096,-0.96c-0.064,-0.272 -0.096,-0.592 -0.096,-0.96c0,-0.384 0.032,-0.704 0.096,-0.96l6.72,0c0.064,0.256 0.096,0.576 0.096,0.96c0,0.368 -0.032,0.688 -0.096,0.96l0.96,0c0.064,0.256 0.096,0.576 0.096,0.96c0,0.368 -0.032,0.688 -0.096,0.96l-0.48,0c0.064,0.256 0.096,0.576 0.096,0.96c0,0.368 -0.032,0.688 -0.096,0.96l-1.44,0c0.064,0.256 0.096,0.576 0.096,0.96c-0,0.368 -0.032,0.688 -0.096,0.96l0.48,0c0.064,0.256 0.096,0.576 0.096,0.96c-0,0.368 -0.032,0.688 -0.096,0.96l0.72,0c0.064,0.256 0.096,0.576 0.096,0.96c-0,0.368 -0.032,0.688 -0.096,0.96l0.72,-0Zm-2.4,-5.76c-0.064,-0.272 -0.096,-0.592 -0.096,-0.96c-0,-0.384 0.032,-0.704 0.096,-0.96c-0.064,-0.272 -0.096,-0.592 -0.096,-0.96c-0,-0.384 0.032,-0.704 0.096,-0.96l-3.36,-0c0.064,0.256 0.096,0.576 0.096,0.96c-0,0.368 -0.032,0.688 -0.096,0.96c0.064,0.256 0.096,0.576 0.096,0.96c-0,0.368 -0.032,0.688 -0.096,0.96l3.36,-0Z" style="fill:#ac251b;"/></svg>