<?xml version="1.0" encoding="UTF-8" standalone="no"?><!DOCTYPE svg PUBLIC "-//W3C//DTD SVG 1.1//EN" "http://www.w3.org/Graphics/SVG/1.1/DTD/svg11.dtd"><svg width="46" height="64" viewBox="0 0 46 64" version="1.1" xmlns="http://www.w3.org/2000/svg" xmlns:xlink="http://www.w3.org/1999/xlink" xml:space="preserve" xmlns:serif="http://www.serif.com/" style="fill-rule:evenodd;clip-rule:evenodd;stroke-linejoin:round;stroke-miterlimit:2;"><path d="M39.413,53.485l-22.335,0c-1.143,0 -2.069,0.927 -2.069,2.069l-0,6.377c-0,1.142 0.926,2.069 2.069,2.069l22.335,-0c1.143,-0 2.069,-0.927 2.069,-2.069l0,-6.377c0,-1.142 -0.926,-2.069 -2.069,-2.069Z" style="fill-rule:nonzero;"/><path d="M42.868,10.997c-1.807,-0.368 -3.575,0.798 -3.945,2.607l-1.592,7.799c-0.06,0.293 -0.339,0.489 -0.635,0.446c-0.297,-0.043 -0.508,-0.309 -0.483,-0.607l1.209,-14.197c0.172,-2.022 -1.328,-3.802 -3.351,-3.974c-2.021,-0.172 -3.802,1.328 -3.974,3.351l-1.029,12.09c-0.027,0.317 -0.299,0.556 -0.616,0.542c-0.318,-0.013 -0.569,-0.274 -0.569,-0.593l0,-14.786c0,-2.029 -1.645,-3.675 -3.675,-3.675c-2.03,-0 -3.676,1.646 -3.676,3.675l0,14.553c0,0.261 -0.203,0.476 -0.463,0.491c-0.26,0.015 -0.486,-0.175 -0.517,-0.433l-1.392,-11.815c-0.237,-2.015 -2.064,-3.458 -4.08,-3.22c-2.016,0.238 -3.458,2.065 -3.22,4.081l2.87,24.355c0.037,0.314 -0.131,0.617 -0.417,0.752c-0.285,0.135 -0.625,0.073 -0.845,-0.155l-6.145,-6.383c-1.407,-1.462 -3.734,-1.507 -5.197,-0.098c-1.462,1.407 -1.506,3.734 -0.098,5.196l14.582,15.147c1.683,2.209 4.339,3.639 7.324,3.639l8.814,0c5.367,0 9.734,-4.367 9.734,-9.734c0,-3.689 0.372,-7.368 1.11,-10.982l2.884,-14.127c0.369,-1.81 -0.798,-3.576 -2.608,-3.945Z" style="fill-rule:nonzero;"/></svg>