<?xml version="1.0" encoding="UTF-8" standalone="no"?><!DOCTYPE svg PUBLIC "-//W3C//DTD SVG 1.1//EN" "http://www.w3.org/Graphics/SVG/1.1/DTD/svg11.dtd"><svg width="100%" height="100%" viewBox="0 0 32 32" version="1.1" xmlns="http://www.w3.org/2000/svg" xmlns:xlink="http://www.w3.org/1999/xlink" xml:space="preserve" xmlns:serif="http://www.serif.com/" style="fill-rule:evenodd;clip-rule:evenodd;stroke-linejoin:round;stroke-miterlimit:2;"><path d="M8.31,2c0.823,-0 1.5,0.677 1.5,1.5l0,12.5c0,0.549 0.452,1 1,1c0.549,0 1,-0.451 1,-1l0,-5.066l0.172,-0.008c0.634,-0.024 1.274,-0.016 1.632,0.054c0.268,0.054 0.588,0.192 0.896,0.364c0.154,0.084 0.3,0.294 0.3,0.628l0,4.028c0,0.549 0.452,1 1,1c0.549,-0 1,-0.451 1,-1l0,-3.13c0.071,-0.007 0.141,-0.014 0.212,-0.02c0.632,-0.048 1.168,-0.02 1.416,0.08c0.236,0.092 0.6,0.414 0.972,0.86c0.162,0.192 0.3,0.38 0.4,0.518l0,2.692c0,0.549 0.452,1 1,1c0.549,-0 1,-0.451 1,-1l0,-2l0.684,-0c1.097,-0 2,0.903 2,2c0,0.067 -0.003,0.134 -0.01,0.2l-0.542,5.43c-0.07,0.698 -0.286,1.373 -0.634,1.982l-2.79,4.884c-0.178,0.311 -0.509,0.504 -0.868,0.504l-12.77,-0c-0.334,-0 -0.647,-0.168 -0.832,-0.446l-2.866,-4.3c-0.266,-0.399 -0.433,-0.856 -0.486,-1.332l-0.69,-6.21c-0.057,-0.513 0.292,-0.991 0.798,-1.092l2.006,-0.4l0,1.78c0,0.549 0.452,1 1,1c0.549,-0 1,-0.451 1,-1l0,-14.5c0,-0.823 0.677,-1.5 1.5,-1.5Zm3.5,6.932l0,-5.432c0,-1.92 -1.58,-3.5 -3.5,-3.5c-1.92,-0 -3.5,1.58 -3.5,3.5l0,10.68l-2.4,0.48c-1.517,0.304 -2.562,1.734 -2.392,3.272l0.69,6.212c0.089,0.794 0.367,1.555 0.81,2.22l2.866,4.3c0.556,0.834 1.494,1.336 2.496,1.336l12.77,-0c1.075,-0 2.071,-0.579 2.604,-1.512l2.79,-4.882c0.488,-0.853 0.791,-1.8 0.888,-2.778l0.542,-5.43c0.013,-0.132 0.02,-0.265 0.02,-0.398c0,-2.194 -1.806,-4 -4,-4l-1.162,-0c-0.125,-0.169 -0.255,-0.335 -0.39,-0.496c-0.382,-0.458 -1.02,-1.136 -1.76,-1.432c-0.728,-0.292 -1.692,-0.264 -2.316,-0.216l-0.264,0.024c-0.213,-0.545 -0.609,-0.999 -1.12,-1.284c-0.46,-0.265 -0.958,-0.46 -1.476,-0.576c-0.62,-0.124 -1.478,-0.116 -2.1,-0.092l-0.096,0.004Z" style="fill-rule:nonzero;"/></svg>