<?xml version="1.0" encoding="UTF-8" standalone="no"?><!DOCTYPE svg PUBLIC "-//W3C//DTD SVG 1.1//EN" "http://www.w3.org/Graphics/SVG/1.1/DTD/svg11.dtd"><svg width="64" height="64" viewBox="0 0 64 64" version="1.1" xmlns="http://www.w3.org/2000/svg" xmlns:xlink="http://www.w3.org/1999/xlink" xml:space="preserve" xmlns:serif="http://www.serif.com/" style="fill-rule:evenodd;clip-rule:evenodd;stroke-linejoin:round;stroke-miterlimit:2;"><path d="M62.216,48.04l-2.853,-4.353c-0.589,-0.899 -1.796,-1.151 -2.695,-0.561l-15.903,10.419c-0.899,0.59 -1.15,1.797 -0.561,2.696l2.852,4.353c0.59,0.899 1.796,1.151 2.696,0.561l15.902,-10.419c0.9,-0.59 1.151,-1.797 0.562,-2.696Z" style="fill-rule:nonzero;"/><path d="M43.467,47.948l5.207,-3.412c2.102,-1.377 3.541,-3.49 4.053,-5.95c0.485,-2.326 0.107,-4.841 -1.341,-7.073c-0.743,-1.135 -6.954,-10.614 -7.684,-11.728c-0.963,-1.469 -2.934,-1.879 -4.403,-0.917c-0.956,0.627 -1.461,1.681 -1.433,2.745l-0.567,-0.864c-0.962,-1.469 -2.934,-1.88 -4.403,-0.917c-0.956,0.626 -1.46,1.68 -1.433,2.745l-0.392,-0.599c-0.963,-1.469 -2.934,-1.88 -4.403,-0.917c-0.956,0.627 -1.46,1.681 -1.433,2.745l-5.272,-8.047c-0.963,-1.469 -2.934,-1.879 -4.403,-0.917c-1.469,0.963 -1.88,2.934 -0.917,4.403l13.111,20.011l-5.488,-1.87c-1.664,-0.567 -3.469,0.322 -4.036,1.984c-0.566,1.663 0.322,3.47 1.985,4.036l15.432,5.258c1.026,0.427 2.129,0.652 3.241,0.652c1.575,-0 3.167,-0.443 4.579,-1.368Z" style="fill-rule:nonzero;"/><path d="M21.587,13.866c0.635,0.968 1.936,1.24 2.904,0.605c0.969,-0.635 1.24,-1.936 0.605,-2.905c-2.953,-4.507 -9.022,-5.771 -13.529,-2.818c-4.507,2.953 -5.771,9.023 -2.818,13.53c0.402,0.614 1.072,0.948 1.756,0.948c0.394,0 0.793,-0.111 1.148,-0.343c0.969,-0.635 1.24,-1.935 0.605,-2.904c-1.685,-2.573 -0.964,-6.036 1.608,-7.722c2.572,-1.685 6.036,-0.964 7.721,1.609Z" style="fill-rule:nonzero;"/><path d="M4.468,14.328c0.693,-3.326 2.64,-6.184 5.482,-8.046c2.843,-1.863 6.24,-2.507 9.567,-1.814c3.326,0.693 6.184,2.64 8.046,5.482c0.635,0.969 1.935,1.24 2.904,0.605c0.969,-0.635 1.24,-1.935 0.605,-2.904c-2.476,-3.78 -6.276,-6.369 -10.7,-7.29c-4.423,-0.921 -8.941,-0.065 -12.721,2.412c-3.779,2.476 -6.368,6.276 -7.29,10.7c-0.921,4.423 -0.064,8.941 2.412,12.72c0.403,0.615 1.073,0.949 1.757,0.949c0.394,-0 0.793,-0.111 1.147,-0.344c0.969,-0.635 1.24,-1.935 0.605,-2.904c-1.863,-2.842 -2.507,-6.239 -1.814,-9.566Z" style="fill-rule:nonzero;"/></svg>