<?xml version="1.0" encoding="UTF-8" standalone="no"?><!DOCTYPE svg PUBLIC "-//W3C//DTD SVG 1.1//EN" "http://www.w3.org/Graphics/SVG/1.1/DTD/svg11.dtd"><svg width="64" height="64" viewBox="0 0 64 64" version="1.1" xmlns="http://www.w3.org/2000/svg" xmlns:xlink="http://www.w3.org/1999/xlink" xml:space="preserve" xmlns:serif="http://www.serif.com/" style="fill-rule:evenodd;clip-rule:evenodd;stroke-linejoin:round;stroke-miterlimit:2;"><g><path d="M39.739,18.329c-0.89,-0 -1.78,0.356 -2.404,0.89c0,0 -0.089,0 -0.178,0.089c-0.712,0.712 -1.424,0.712 -2.136,0c-0.624,-0.623 -1.514,-0.979 -2.493,-0.979c-0.979,-0 -1.781,0.356 -2.404,0.89c0,0 -0.089,0 -0.178,0.089c-0.712,0.712 -1.424,0.712 -2.137,0.089c-0.623,-0.623 -1.602,-1.068 -2.581,-1.068c-0.98,-0 -1.781,0.356 -2.404,0.89c-0,0 -0.089,0 -0.178,0.089c-0.267,0.267 -0.534,0.445 -0.801,0.534l-0,-16.292c-0,-1.958 -1.603,-3.65 -3.651,-3.65c-2.047,0 -3.561,1.603 -3.561,3.65l0,31.16c-0.89,-1.068 -1.691,-1.425 -2.849,-2.582c-6.41,-6.143 -9.526,-4.451 -10.95,-3.205c-1.335,1.335 -0.979,3.561 0.445,4.897c7.033,6.053 10.772,15.579 12.286,18.517c-0,0 -0,0.089 0.089,0.089c0.178,0.356 0.356,0.624 0.445,0.713c0.89,1.246 2.048,2.225 3.383,2.848l0,5.431c0,1.425 1.158,2.582 2.582,2.582l16.559,0c1.425,0 2.582,-1.157 2.582,-2.582l-0,-7.122c2.493,-2.048 4.095,-5.253 4.095,-8.725l0,-23.592c0.089,-2.048 -1.602,-3.65 -3.561,-3.65Z" style="fill:#ffcb00;fill-rule:nonzero;"/><path d="M32.083,56.878l-11.129,-0c-1.246,-0 -2.404,-0.267 -3.472,-0.801l0,1.157c0,1.068 0.89,1.958 1.959,1.958l17.805,0c1.069,0 1.959,-0.89 1.959,-1.958l-0,-2.938c-1.959,1.602 -4.451,2.582 -7.122,2.582Z" style="fill:#d8ad00;fill-rule:nonzero;"/></g></svg>