<?xml version="1.0" encoding="UTF-8" standalone="no"?><!DOCTYPE svg PUBLIC "-//W3C//DTD SVG 1.1//EN" "http://www.w3.org/Graphics/SVG/1.1/DTD/svg11.dtd"><svg width="100%" height="100%" viewBox="0 0 2167 1991" version="1.1" xmlns="http://www.w3.org/2000/svg" xmlns:xlink="http://www.w3.org/1999/xlink" xml:space="preserve" xmlns:serif="http://www.serif.com/" style="fill-rule:evenodd;clip-rule:evenodd;stroke-linecap:round;stroke-linejoin:round;stroke-miterlimit:1.5;"><path id="antenne" d="M1721.79,33.07c10.022,-7.087 13.948,-11.09 7.309,-20.478l-4.535,-6.414c-6.639,-9.388 -11.722,-7.02 -21.743,0.066l-1031.6,719.294c-10.021,7.086 -12.767,20.462 -6.128,29.85l4.535,6.413c6.639,9.388 20.164,11.256 30.186,4.17l1021.98,-732.901Z" style="fill:url(#_Linear1);"/><g id="chassis"><path id="body2" d="M2166.98,853.201l0,983.309c-0.722,24.854 -12.582,46.937 -30.763,61.428l-80.354,70.889l0,-1247.94l80.354,70.888c18.18,14.49 30.041,36.574 30.763,61.428Z" style="fill:url(#_Linear2);"/><path id="body1" d="M2085.42,784.445c-0,-45.993 -37.341,-83.333 -83.334,-83.333l-1916.67,-0c-45.993,-0 -83.334,37.34 -83.334,83.333l0,1120.83c0,45.993 37.341,83.334 83.334,83.334l1916.67,-0c45.993,-0 83.334,-37.341 83.334,-83.334l-0,-1120.83Z" style="fill:url(#_Radial3);stroke:#eb8f87;stroke-width:4.17px;"/><path id="screen" d="M1257.64,812.325c-0,-22.996 -18.67,-41.667 -41.667,-41.667l-1097.22,0c-22.996,0 -41.667,18.671 -41.667,41.667l0,288.889c0,22.996 18.671,41.667 41.667,41.667l1097.22,-0c22.997,-0 41.667,-18.671 41.667,-41.667l-0,-288.889Z"/><clipPath id="_clip4"><path d="M1257.64,812.325c-0,-22.996 -18.67,-41.667 -41.667,-41.667l-1097.22,0c-22.996,0 -41.667,18.671 -41.667,41.667l0,288.889c0,22.996 18.671,41.667 41.667,41.667l1097.22,-0c22.997,-0 41.667,-18.671 41.667,-41.667l-0,-288.889Z"/></clipPath><g clip-path="url(#_clip4)"><text id="channel" x="137.859px" y="1096.71px" style="font-family:'PressStart2P-Regular', 'Press Start 2P';font-size:83.333px;fill:#edeeee;">Sender</text><text id="time" x="362.674px" y="972.394px" style="font-family:'PressStart2P-Regular', 'Press Start 2P';font-size:125px;fill:#edeeee;">00:00</text></g><path d="M1257.64,812.325c-0,-22.996 -18.67,-41.667 -41.667,-41.667l-1097.22,0c-22.996,0 -41.667,18.671 -41.667,41.667l0,288.889c0,22.996 18.671,41.667 41.667,41.667l1097.22,-0c22.997,-0 41.667,-18.671 41.667,-41.667l-0,-288.889Z" style="fill:none;stroke:#000;stroke-width:20.83px;"/></g><g id="button"><path d="M166.01,1243.2c39.552,0 71.663,32.111 71.663,71.663c-0,39.551 -32.111,71.662 -71.663,71.662l-17.264,0l-0,-143.325c7.743,0 0.363,0 17.264,0Z" style="fill:#656565;"/><circle cx="148.746" cy="1314.87" r="71.663" style="fill:#bababa;"/></g><g id="button1" serif:id="button"><path d="M451.601,1243.2c39.551,0 71.662,32.111 71.662,71.663c0,39.551 -32.111,71.662 -71.662,71.662l-17.265,0l0,-143.325c7.743,0 0.364,0 17.265,0Z" style="fill:#656565;"/><circle cx="434.336" cy="1314.87" r="71.663" style="fill:#bababa;"/></g><g id="button2" serif:id="button"><path d="M756.288,1243.2c39.552,0 71.663,32.111 71.663,71.663c-0,39.551 -32.111,71.662 -71.663,71.662l-17.264,0l-0,-143.325c7.743,0 0.363,0 17.264,0Z" style="fill:#656565;"/><circle cx="739.024" cy="1314.87" r="71.663" style="fill:#bababa;"/></g><g id="button3" serif:id="button"><path d="M1060.98,1243.2c39.551,0 71.662,32.111 71.662,71.663c0,39.551 -32.111,71.662 -71.662,71.662l-17.265,0l0,-143.325c7.743,0 0.364,0 17.265,0Z" style="fill:#656565;"/><circle cx="1043.71" cy="1314.87" r="71.663" style="fill:#bababa;"/></g><defs><linearGradient id="_Linear1" x1="0" y1="0" x2="1" y2="0" gradientUnits="userSpaceOnUse" gradientTransform="matrix(14.2962,20.2166,-531.551,375.889,1198.91,382.706)"><stop offset="0" style="stop-color:#b8b8b8;stop-opacity:1"/><stop offset="1" style="stop-color:#d3d3d3;stop-opacity:1"/></linearGradient><linearGradient id="_Linear2" x1="0" y1="0" x2="1" y2="0" gradientUnits="userSpaceOnUse" gradientTransform="matrix(111.117,0,0,1247.94,2055.86,1344.86)"><stop offset="0" style="stop-color:#bf2e21;stop-opacity:1"/><stop offset="0.48" style="stop-color:#b53124;stop-opacity:1"/><stop offset="1" style="stop-color:#9a392b;stop-opacity:1"/></linearGradient><radialGradient id="_Radial3" cx="0" cy="0" r="1" gradientUnits="userSpaceOnUse" gradientTransform="matrix(1041.67,0,0,643.75,1043.75,1344.86)"><stop offset="0" style="stop-color:#c13a2a;stop-opacity:1"/><stop offset="1" style="stop-color:#a82118;stop-opacity:1"/></radialGradient></defs></svg>