<?xml version="1.0" encoding="UTF-8" standalone="no"?><!DOCTYPE svg PUBLIC "-//W3C//DTD SVG 1.1//EN" "http://www.w3.org/Graphics/SVG/1.1/DTD/svg11.dtd"><svg width="100%" height="100%" viewBox="0 0 1024 768" version="1.1" xmlns="http://www.w3.org/2000/svg" xmlns:xlink="http://www.w3.org/1999/xlink" xml:space="preserve" xmlns:serif="http://www.serif.com/" style="fill-rule:evenodd;clip-rule:evenodd;stroke-linejoin:round;stroke-miterlimit:2;"><path id="body" d="M810.965,324.535c0,-10.598 -8.604,-19.202 -19.201,-19.202l-507.93,0c-10.598,0 -19.202,8.604 -19.202,19.202l-0,314.93c-0,10.598 8.604,19.202 19.202,19.202l507.93,-0c10.597,-0 19.201,-8.604 19.201,-19.202l0,-314.93Z" style="fill:#c94242;"/><g id="Buttons"><circle cx="550.775" cy="550.137" r="17.863"/><circle cx="614.334" cy="550.137" r="17.863"/><circle cx="677.894" cy="550.137" r="17.863"/><circle cx="741.453" cy="550.137" r="17.863"/></g><g id="display"><path d="M759.317,364.451c-0,-1.612 -1.309,-2.921 -2.921,-2.921l-220.563,-0c-1.612,-0 -2.921,1.309 -2.921,2.921l-0,140.211c-0,1.612 1.309,2.921 2.921,2.921l220.563,0c1.612,0 2.921,-1.309 2.921,-2.921l-0,-140.211Z"/><text id="zeit" x="563.833px" y="430px" style="font-family:'ArialMT', 'Arial', sans-serif;font-size:64px;fill:#fff;">15:45</text><text id="sender" x="548.966px" y="477.743px" style="font-family:'ArialMT', 'Arial', sans-serif;font-size:30px;fill:#fff;">Sender</text></g><circle id="lautsprecher" cx="403.003" cy="470.527" r="108.997" style="fill:#3f3f3f;"/><path d="M410.5,369.027c0,4.138 -3.359,7.498 -7.497,7.498c-4.138,-0 -7.497,-3.36 -7.497,-7.498c-0,-4.138 3.359,-7.497 7.497,-7.497c4.138,-0 7.497,3.359 7.497,7.497Z" style="fill:#a9a9a9;"/><path d="M410.5,394.402c0,4.138 -3.359,7.498 -7.497,7.498c-4.138,-0 -7.497,-3.36 -7.497,-7.498c-0,-4.138 3.359,-7.497 7.497,-7.497c4.138,-0 7.497,3.359 7.497,7.497Z" style="fill:#a9a9a9;"/><path d="M410.5,419.777c0,4.138 -3.359,7.497 -7.497,7.497c-4.138,0 -7.497,-3.359 -7.497,-7.497c-0,-4.138 3.359,-7.497 7.497,-7.497c4.138,-0 7.497,3.359 7.497,7.497Z" style="fill:#a9a9a9;"/><path d="M410.5,445.152c0,4.138 -3.359,7.497 -7.497,7.497c-4.138,0 -7.497,-3.359 -7.497,-7.497c-0,-4.138 3.359,-7.497 7.497,-7.497c4.138,-0 7.497,3.359 7.497,7.497Z" style="fill:#a9a9a9;"/><path d="M410.5,470.527c0,4.138 -3.359,7.497 -7.497,7.497c-4.138,0 -7.497,-3.359 -7.497,-7.497c-0,-4.138 3.359,-7.497 7.497,-7.497c4.138,-0 7.497,3.359 7.497,7.497Z" style="fill:#a9a9a9;"/><path d="M410.5,521.277c0,4.138 -3.359,7.497 -7.497,7.497c-4.138,0 -7.497,-3.359 -7.497,-7.497c-0,-4.138 3.359,-7.498 7.497,-7.498c4.138,0 7.497,3.36 7.497,7.498Z" style="fill:#a9a9a9;"/><path d="M410.5,495.902c0,4.138 -3.359,7.497 -7.497,7.497c-4.138,0 -7.497,-3.359 -7.497,-7.497c-0,-4.138 3.359,-7.497 7.497,-7.497c4.138,-0 7.497,3.359 7.497,7.497Z" style="fill:#a9a9a9;"/><path d="M410.5,572.027c0,4.138 -3.359,7.497 -7.497,7.497c-4.138,0 -7.497,-3.359 -7.497,-7.497c-0,-4.138 3.359,-7.498 7.497,-7.498c4.138,0 7.497,3.36 7.497,7.498Z" style="fill:#a9a9a9;"/><path d="M410.5,546.652c0,4.138 -3.359,7.497 -7.497,7.497c-4.138,0 -7.497,-3.359 -7.497,-7.497c-0,-4.138 3.359,-7.498 7.497,-7.498c4.138,0 7.497,3.36 7.497,7.498Z" style="fill:#a9a9a9;"/><circle cx="504.503" cy="470.527" r="7.497" style="fill:#a9a9a9;"/><circle cx="479.128" cy="470.527" r="7.497" style="fill:#a9a9a9;"/><circle cx="453.753" cy="470.527" r="7.497" style="fill:#a9a9a9;"/><circle cx="428.378" cy="470.527" r="7.497" style="fill:#a9a9a9;"/><path d="M480.076,404.057c-2.926,2.926 -7.677,2.926 -10.603,0c-2.926,-2.926 -2.926,-7.677 -0,-10.603c2.926,-2.926 7.677,-2.926 10.603,0c2.925,2.926 2.925,7.677 -0,10.603Z" style="fill:#a9a9a9;"/><path d="M462.133,422c-2.926,2.926 -7.677,2.926 -10.603,0c-2.926,-2.926 -2.926,-7.677 -0,-10.603c2.926,-2.926 7.677,-2.926 10.603,0c2.926,2.926 2.926,7.677 -0,10.603Z" style="fill:#a9a9a9;"/><path d="M444.19,439.943c-2.926,2.926 -7.677,2.926 -10.603,-0c-2.926,-2.926 -2.926,-7.677 0,-10.603c2.926,-2.926 7.677,-2.926 10.603,-0c2.926,2.926 2.926,7.677 -0,10.603Z" style="fill:#a9a9a9;"/><path d="M426.247,457.886c-2.926,2.926 -7.677,2.926 -10.603,-0c-2.926,-2.926 -2.926,-7.677 0,-10.603c2.926,-2.926 7.677,-2.926 10.603,-0c2.926,2.926 2.926,7.677 0,10.603Z" style="fill:#a9a9a9;"/><path d="M372.419,511.714c-2.926,2.926 -7.677,2.926 -10.603,-0c-2.926,-2.926 -2.926,-7.677 -0,-10.603c2.926,-2.926 7.677,-2.926 10.603,0c2.926,2.926 2.926,7.677 -0,10.603Z" style="fill:#a9a9a9;"/><path d="M390.362,493.771c-2.926,2.926 -7.677,2.926 -10.603,0c-2.926,-2.926 -2.926,-7.677 -0,-10.603c2.926,-2.926 7.677,-2.926 10.603,0c2.926,2.926 2.926,7.677 -0,10.603Z" style="fill:#a9a9a9;"/><path d="M336.533,547.6c-2.926,2.925 -7.677,2.925 -10.603,-0c-2.926,-2.926 -2.926,-7.677 0,-10.603c2.926,-2.926 7.677,-2.926 10.603,-0c2.926,2.926 2.926,7.677 0,10.603Z" style="fill:#a9a9a9;"/><path d="M354.476,529.657c-2.926,2.926 -7.677,2.926 -10.603,-0c-2.926,-2.926 -2.926,-7.677 0,-10.603c2.926,-2.926 7.677,-2.926 10.603,-0c2.926,2.926 2.926,7.677 0,10.603Z" style="fill:#a9a9a9;"/><path d="M469.473,547.6c-2.926,-2.926 -2.926,-7.677 -0,-10.603c2.926,-2.926 7.677,-2.926 10.603,-0c2.925,2.926 2.925,7.677 -0,10.603c-2.926,2.925 -7.677,2.925 -10.603,-0Z" style="fill:#a9a9a9;"/><path d="M451.53,529.657c-2.926,-2.926 -2.926,-7.677 -0,-10.603c2.926,-2.926 7.677,-2.926 10.603,-0c2.926,2.926 2.926,7.677 -0,10.603c-2.926,2.926 -7.677,2.926 -10.603,-0Z" style="fill:#a9a9a9;"/><path d="M433.587,511.714c-2.926,-2.926 -2.926,-7.677 0,-10.603c2.926,-2.926 7.677,-2.926 10.603,0c2.926,2.926 2.926,7.677 -0,10.603c-2.926,2.926 -7.677,2.926 -10.603,-0Z" style="fill:#a9a9a9;"/><path d="M415.644,493.771c-2.926,-2.926 -2.926,-7.677 0,-10.603c2.926,-2.926 7.677,-2.926 10.603,0c2.926,2.926 2.926,7.677 0,10.603c-2.926,2.926 -7.677,2.926 -10.603,0Z" style="fill:#a9a9a9;"/><path d="M361.816,439.943c-2.926,-2.926 -2.926,-7.677 -0,-10.603c2.926,-2.926 7.677,-2.926 10.603,-0c2.926,2.926 2.926,7.677 -0,10.603c-2.926,2.926 -7.677,2.926 -10.603,-0Z" style="fill:#a9a9a9;"/><path d="M379.759,457.886c-2.926,-2.926 -2.926,-7.677 -0,-10.603c2.926,-2.926 7.677,-2.926 10.603,-0c2.926,2.926 2.926,7.677 -0,10.603c-2.926,2.926 -7.677,2.926 -10.603,-0Z" style="fill:#a9a9a9;"/><path d="M325.93,404.057c-2.926,-2.926 -2.926,-7.677 0,-10.603c2.926,-2.926 7.677,-2.926 10.603,0c2.926,2.926 2.926,7.677 0,10.603c-2.926,2.926 -7.677,2.926 -10.603,0Z" style="fill:#a9a9a9;"/><path d="M343.873,422c-2.926,-2.926 -2.926,-7.677 0,-10.603c2.926,-2.926 7.677,-2.926 10.603,0c2.926,2.926 2.926,7.677 0,10.603c-2.926,2.926 -7.677,2.926 -10.603,0Z" style="fill:#a9a9a9;"/><circle cx="352.253" cy="470.527" r="7.497" style="fill:#a9a9a9;"/><circle cx="377.628" cy="470.527" r="7.497" style="fill:#a9a9a9;"/><circle cx="301.503" cy="470.527" r="7.497" style="fill:#a9a9a9;"/><circle cx="326.878" cy="470.527" r="7.497" style="fill:#a9a9a9;"/></svg>