<?xml version="1.0" encoding="UTF-8" standalone="no"?><!DOCTYPE svg PUBLIC "-//W3C//DTD SVG 1.1//EN" "http://www.w3.org/Graphics/SVG/1.1/DTD/svg11.dtd"><svg width="100%" height="100%" viewBox="0 0 521 478" version="1.1" xmlns="http://www.w3.org/2000/svg" xmlns:xlink="http://www.w3.org/1999/xlink" xml:space="preserve" xmlns:serif="http://www.serif.com/" style="fill-rule:evenodd;clip-rule:evenodd;stroke-linecap:round;stroke-linejoin:round;stroke-miterlimit:1.5;"><path id="antenne" d="M413.23,7.937c2.405,-1.701 3.347,-2.662 1.754,-4.915l-1.089,-1.539c-1.593,-2.253 -2.813,-1.685 -5.218,0.016l-247.584,172.63c-2.405,1.701 -3.064,4.911 -1.471,7.164l1.089,1.539c1.593,2.253 4.839,2.702 7.245,1.001l245.274,-175.896Z" style="fill:url(#_Linear1);"/><g id="chassis"><path id="body2" d="M520.075,204.768l-0,235.994c-0.174,5.965 -3.02,11.265 -7.383,14.743l-19.285,17.013l-0,-299.506l19.285,17.014c4.363,3.477 7.21,8.777 7.383,14.742Z" style="fill:url(#_Linear2);"/><path id="body1" d="M500.5,188.267c0,-11.039 -8.962,-20 -20,-20l-460,-0c-11.038,-0 -20,8.961 -20,20l0,269c0,11.038 8.962,20 20,20l460,-0c11.038,-0 20,-8.962 20,-20l0,-269Z" style="fill:url(#_Radial3);stroke:#eb8f87;stroke-width:1px;"/><path id="screen" d="M301.833,194.958c0,-5.519 -4.481,-10 -10,-10l-263.333,-0c-5.519,-0 -10,4.481 -10,10l-0,69.333c-0,5.519 4.481,10 10,10l263.333,0c5.519,0 10,-4.481 10,-10l0,-69.333Z"/><clipPath id="_clip4"><path d="M301.833,194.958c0,-5.519 -4.481,-10 -10,-10l-263.333,-0c-5.519,-0 -10,4.481 -10,10l-0,69.333c-0,5.519 4.481,10 10,10l263.333,0c5.519,0 10,-4.481 10,-10l0,-69.333Z"/></clipPath><g clip-path="url(#_clip4)"><text id="channel" x="33.086px" y="263.211px" style="font-family:'VT323-Regular', 'VT323', monospace;font-size:36px;fill:#edeeee;">Sender</text><text id="time" x="88.167px" y="233.625px" style="font-family:'VT323-Regular', 'VT323', monospace;font-size:72px;fill:#edeeee;">00:00</text></g></g><g id="button"><path d="M37.11,298.369c9.493,-0 17.199,7.706 17.199,17.199c0,9.492 -7.706,17.199 -17.199,17.199l-4.143,-0l-0,-34.398l4.143,-0Z" style="fill:#656565;"/><circle cx="32.967" cy="315.568" r="17.199" style="fill:#bababa;"/></g><g id="button1" serif:id="button"><path d="M120.438,298.369c9.493,-0 17.199,7.706 17.199,17.199c0,9.492 -7.706,17.199 -17.199,17.199l-4.143,-0l-0,-34.398l4.143,-0Z" style="fill:#656565;"/><circle cx="116.295" cy="315.568" r="17.199" style="fill:#bababa;"/></g><g id="button2" serif:id="button"><path d="M201.034,298.369c9.492,-0 17.199,7.706 17.199,17.199c0,9.492 -7.707,17.199 -17.199,17.199l-4.143,-0l-0,-34.398l4.143,-0Z" style="fill:#656565;"/><circle cx="196.891" cy="315.568" r="17.199" style="fill:#bababa;"/></g><g id="button3" serif:id="button"><path d="M281.63,298.369c9.492,-0 17.199,7.706 17.199,17.199c-0,9.492 -7.707,17.199 -17.199,17.199l-4.144,-0l0,-34.398l4.144,-0Z" style="fill:#656565;"/><circle cx="277.486" cy="315.568" r="17.199" style="fill:#bababa;"/></g><defs><linearGradient id="_Linear1" x1="0" y1="0" x2="1" y2="0" gradientUnits="userSpaceOnUse" gradientTransform="matrix(3.4311,4.85198,-127.572,90.2133,287.739,91.8493)"><stop offset="0" style="stop-color:#b8b8b8;stop-opacity:1"/><stop offset="1" style="stop-color:#d3d3d3;stop-opacity:1"/></linearGradient><linearGradient id="_Linear2" x1="0" y1="0" x2="1" y2="0" gradientUnits="userSpaceOnUse" gradientTransform="matrix(26.6681,0,0,299.506,493.407,322.765)"><stop offset="0" style="stop-color:#bf2e21;stop-opacity:1"/><stop offset="0.48" style="stop-color:#b53124;stop-opacity:1"/><stop offset="1" style="stop-color:#9a392b;stop-opacity:1"/></linearGradient><radialGradient id="_Radial3" cx="0" cy="0" r="1" gradientUnits="userSpaceOnUse" gradientTransform="matrix(250,0,0,154.5,250.5,322.767)"><stop offset="0" style="stop-color:#c13a2a;stop-opacity:1"/><stop offset="1" style="stop-color:#a82118;stop-opacity:1"/></radialGradient></defs></svg>